<svg viewBox="0 0 640 400" xmlns="http://www.w3.org/2000/svg">
  <defs>
    <linearGradient id="wash" x1="0" y1="0" x2="1" y2="1">
      <stop offset="0" stop-color="#F2A93B" stop-opacity="0.35"/>
      <stop offset="0.55" stop-color="#F2A93B" stop-opacity="0"/>
    </linearGradient>
    <pattern id="grid" width="28" height="28" patternUnits="userSpaceOnUse">
      <path d="M 28 0 L 0 0 0 28" fill="none" stroke="#ffffff" stroke-opacity="0.045" stroke-width="1"/>
    </pattern>
  </defs>
  <rect width="640" height="400" fill="#101623"/>
  <rect width="640" height="400" fill="url(#grid)"/>
  <rect width="640" height="400" fill="url(#wash)"/>
  <rect x="0.5" y="0.5" width="639" height="399" fill="none" stroke="#212B3D" stroke-width="1"/>
  <g transform="translate(320,200)" fill="none" stroke="#F2A93B" stroke-width="3" stroke-linecap="round" stroke-linejoin="round">
    
  <g stroke-opacity="0.9">
    <circle cx="-90" cy="-50" r="7" fill="#F2A93B" stroke="none"/>
    <circle cx="-90" cy="0"   r="7" fill="#F2A93B" stroke="none"/>
    <circle cx="-90" cy="50"  r="7" fill="#F2A93B" stroke="none"/>
    <circle cx="0" cy="-75" r="7" fill="#F2A93B" stroke="none"/>
    <circle cx="0" cy="-25" r="7" fill="#F2A93B" stroke="none"/>
    <circle cx="0" cy="25"  r="7" fill="#F2A93B" stroke="none"/>
    <circle cx="0" cy="75"  r="7" fill="#F2A93B" stroke="none"/>
    <circle cx="90" cy="-25" r="7" fill="#F2A93B" stroke="none"/>
    <circle cx="90" cy="25"  r="7" fill="#F2A93B" stroke="none"/>
    <g stroke-width="1.4" stroke-opacity="0.55">
      <line x1="-90" y1="-50" x2="0" y2="-75"/>
      <line x1="-90" y1="-50" x2="0" y2="-25"/>
      <line x1="-90" y1="-50" x2="0" y2="25"/>
      <line x1="-90" y1="0" x2="0" y2="-75"/>
      <line x1="-90" y1="0" x2="0" y2="25"/>
      <line x1="-90" y1="0" x2="0" y2="75"/>
      <line x1="-90" y1="50" x2="0" y2="25"/>
      <line x1="-90" y1="50" x2="0" y2="75"/>
      <line x1="0" y1="-75" x2="90" y2="-25"/>
      <line x1="0" y1="-25" x2="90" y2="-25"/>
      <line x1="0" y1="-25" x2="90" y2="25"/>
      <line x1="0" y1="25" x2="90" y2="-25"/>
      <line x1="0" y1="25" x2="90" y2="25"/>
      <line x1="0" y1="75" x2="90" y2="25"/>
    </g>
  </g>

  </g>
</svg>